<svg width="14" height="21" viewBox="0 0 14 21" fill="none" xmlns="http://www.w3.org/2000/svg">
<path d="M7 13.5571C8.06087 13.5571 9.07828 13.1177 9.82843 12.3354C10.5786 11.5531 11 10.492 11 9.38572V4.17143C11 3.0651 10.5786 2.00408 9.82843 1.22178C9.07828 0.439489 8.06087 0 7 0C5.93913 0 4.92172 0.439489 4.17157 1.22178C3.42143 2.00408 3 3.0651 3 4.17143V9.38572C3 10.492 3.42143 11.5531 4.17157 12.3354C4.92172 13.1177 5.93913 13.5571 7 13.5571Z" fill="#D9D9D9"/>
<path d="M14 9.38563C14 9.10905 13.8946 8.84379 13.7071 8.64822C13.5196 8.45265 13.2652 8.34277 13 8.34277C12.7348 8.34277 12.4804 8.45265 12.2929 8.64822C12.1054 8.84379 12 9.10905 12 9.38563C12 10.7685 11.4732 12.0948 10.5355 13.0727C9.59785 14.0506 8.32608 14.5999 7 14.5999C5.67392 14.5999 4.40215 14.0506 3.46447 13.0727C2.52678 12.0948 2 10.7685 2 9.38563C2 9.10905 1.89464 8.84379 1.70711 8.64822C1.51957 8.45265 1.26522 8.34277 1 8.34277C0.734784 8.34277 0.48043 8.45265 0.292893 8.64822C0.105357 8.84379 0 9.10905 0 9.38563C0.00197111 11.1396 0.609407 12.8341 1.71118 14.1593C2.81295 15.4845 4.3354 16.3516 6 16.6022V18.7713H3.89C3.65396 18.7713 3.42758 18.8691 3.26068 19.0432C3.09377 19.2173 3 19.4533 3 19.6995V19.9289C3 20.1751 3.09377 20.4112 3.26068 20.5852C3.42758 20.7593 3.65396 20.8571 3.89 20.8571H10.11C10.346 20.8571 10.5724 20.7593 10.7393 20.5852C10.9062 20.4112 11 20.1751 11 19.9289V19.6995C11 19.4533 10.9062 19.2173 10.7393 19.0432C10.5724 18.8691 10.346 18.7713 10.11 18.7713H8V16.6022C9.6646 16.3516 11.187 15.4845 12.2888 14.1593C13.3906 12.8341 13.998 11.1396 14 9.38563Z" fill="#D9D9D9"/>
</svg>
