<svg width="20" height="21" viewBox="0 0 20 21" fill="none" xmlns="http://www.w3.org/2000/svg">
<path d="M17 0.0830078H3C2.20435 0.0830078 1.44129 0.412248 0.87868 0.998299C0.316071 1.58435 0 2.37921 0 3.20801V17.7913C0 18.6201 0.316071 19.415 0.87868 20.001C1.44129 20.5871 2.20435 20.9163 3 20.9163H17C17.1645 20.914 17.3284 20.8965 17.49 20.8643L17.79 20.7913H17.86H17.91L18.28 20.6455L18.41 20.5726C18.51 20.5101 18.62 20.458 18.72 20.3851C18.8535 20.2828 18.9805 20.1714 19.1 20.0518L19.17 19.958C19.2682 19.8544 19.3584 19.7429 19.44 19.6247L19.53 19.4893C19.5998 19.3733 19.6601 19.2513 19.71 19.1247C19.7374 19.0747 19.7609 19.0224 19.78 18.9684C19.83 18.8434 19.86 18.708 19.9 18.5726V18.4163C19.9567 18.2128 19.9903 18.003 20 17.7913V3.20801C20 2.37921 19.6839 1.58435 19.1213 0.998299C18.5587 0.412248 17.7956 0.0830078 17 0.0830078ZM3 18.833C2.73478 18.833 2.48043 18.7233 2.29289 18.5279C2.10536 18.3326 2 18.0676 2 17.7913V13.3018L5.29 9.86426C5.38296 9.76662 5.49356 9.68913 5.61542 9.63624C5.73728 9.58336 5.86799 9.55613 6 9.55613C6.13201 9.55613 6.26272 9.58336 6.38458 9.63624C6.50644 9.68913 6.61704 9.76662 6.71 9.86426L15.31 18.833H3ZM18 17.7913C17.9991 17.9198 17.9753 18.0469 17.93 18.1663C17.9071 18.2171 17.8804 18.2659 17.85 18.3122C17.8232 18.3563 17.7931 18.3981 17.76 18.4372L12.41 12.8643L13.29 11.9476C13.383 11.85 13.4936 11.7725 13.6154 11.7196C13.7373 11.6667 13.868 11.6395 14 11.6395C14.132 11.6395 14.2627 11.6667 14.3846 11.7196C14.5064 11.7725 14.617 11.85 14.71 11.9476L18 15.3851V17.7913ZM18 12.4372L16.12 10.4997C15.5477 9.93404 14.7889 9.61871 14 9.61871C13.2111 9.61871 12.4523 9.93404 11.88 10.4997L11 11.4163L8.12 8.41634C7.54772 7.85071 6.7889 7.53538 6 7.53538C5.2111 7.53538 4.45228 7.85071 3.88 8.41634L2 10.3538V3.20801C2 2.93174 2.10536 2.66679 2.29289 2.47144C2.48043 2.27609 2.73478 2.16634 3 2.16634H17C17.2652 2.16634 17.5196 2.27609 17.7071 2.47144C17.8946 2.66679 18 2.93174 18 3.20801V12.4372ZM11.5 4.24967C11.2033 4.24967 10.9133 4.34131 10.6666 4.513C10.42 4.68469 10.2277 4.92872 10.1142 5.21423C10.0006 5.49974 9.97094 5.81391 10.0288 6.117C10.0867 6.4201 10.2296 6.69851 10.4393 6.91703C10.6491 7.13555 10.9164 7.28436 11.2074 7.34465C11.4983 7.40494 11.7999 7.374 12.074 7.25574C12.3481 7.13747 12.5824 6.9372 12.7472 6.68025C12.912 6.4233 13 6.12121 13 5.81217C13 5.39777 12.842 5.00035 12.5607 4.70732C12.2794 4.41429 11.8978 4.24967 11.5 4.24967Z" fill="#D9D9D9"/>
</svg>
