<svg width="21" height="20" viewBox="0 0 21 20" fill="none" xmlns="http://www.w3.org/2000/svg">
<path d="M18.375 7.5H13.125V2.5C13.125 1.83696 12.8484 1.20107 12.3562 0.732233C11.8639 0.263392 11.1962 0 10.5 0C9.80381 0 9.13613 0.263392 8.64385 0.732233C8.15156 1.20107 7.875 1.83696 7.875 2.5L7.96819 7.5H2.625C1.92881 7.5 1.26113 7.76339 0.768845 8.23223C0.276562 8.70107 0 9.33696 0 10C0 10.663 0.276562 11.2989 0.768845 11.7678C1.26113 12.2366 1.92881 12.5 2.625 12.5L7.96819 12.4112L7.875 17.5C7.875 18.163 8.15156 18.7989 8.64385 19.2678C9.13613 19.7366 9.80381 20 10.5 20C11.1962 20 11.8639 19.7366 12.3562 19.2678C12.8484 18.7989 13.125 18.163 13.125 17.5V12.4112L18.375 12.5C19.0712 12.5 19.7389 12.2366 20.2312 11.7678C20.7234 11.2989 21 10.663 21 10C21 9.33696 20.7234 8.70107 20.2312 8.23223C19.7389 7.76339 19.0712 7.5 18.375 7.5Z" fill="#D9D9D9"/>
</svg>
